<svg width="817" height="454" xmlns="http://www.w3.org/2000/svg" xmlns:xlink="http://www.w3.org/1999/xlink" xml:space="preserve" overflow="hidden"><defs><radialGradient cx="1771650" cy="2247900" r="2915646" gradientUnits="userSpaceOnUse" spreadMethod="pad" id="stroke0" gradientTransform="matrix(0.000101319 0 0 0.000101319 410.747 429.697)"><stop offset="0" stop-color="#31457C" stop-opacity="1"/><stop offset="0.27" stop-color="#31457C" stop-opacity="1"/><stop offset="0.56" stop-color="#E62B4B" stop-opacity="1"/><stop offset="0.9" stop-color="#31457C" stop-opacity="1"/><stop offset="1" stop-color="#31457C" stop-opacity="1"/></radialGradient><radialGradient cx="298892" cy="328998" r="444553" gradientUnits="userSpaceOnUse" spreadMethod="pad" id="fill1" gradientTransform="matrix(0.000101319 0 0 0.000101319 467.244 469.065)"><stop offset="0" stop-color="#31457C" stop-opacity="1"/><stop offset="0.7" stop-color="#E62B4B" stop-opacity="1"/><stop offset="0.82" stop-color="#E62B4B" stop-opacity="1"/><stop offset="1" stop-color="#31457C" stop-opacity="1"/></radialGradient><radialGradient cx="298892" cy="328998" r="444553" gradientUnits="userSpaceOnUse" spreadMethod="pad" id="fill2" gradientTransform="matrix(0.000101319 0 0 0.000101319 467.244 469.065)"><stop offset="0" stop-color="#31457C" stop-opacity="1"/><stop offset="0.7" stop-color="#E62B4B" stop-opacity="1"/><stop offset="0.82" stop-color="#E62B4B" stop-opacity="1"/><stop offset="1" stop-color="#31457C" stop-opacity="1"/></radialGradient><radialGradient cx="557584" cy="524849" r="765895" gradientUnits="userSpaceOnUse" spreadMethod="pad" id="fill3" gradientTransform="matrix(0.000101319 0 0 0.000101319 443.039 505.517)"><stop offset="0" stop-color="#31457C" stop-opacity="1"/><stop offset="0.7" stop-color="#E62B4B" stop-opacity="1"/><stop offset="0.82" stop-color="#E62B4B" stop-opacity="1"/><stop offset="1" stop-color="#31457C" stop-opacity="1"/></radialGradient><radialGradient cx="557584" cy="524849" r="765895" gradientUnits="userSpaceOnUse" spreadMethod="pad" id="fill4" gradientTransform="matrix(0.000101319 0 0 0.000101319 443.039 505.517)"><stop offset="0" stop-color="#31457C" stop-opacity="1"/><stop offset="0.7" stop-color="#E62B4B" stop-opacity="1"/><stop offset="0.82" stop-color="#E62B4B" stop-opacity="1"/><stop offset="1" stop-color="#31457C" stop-opacity="1"/></radialGradient><linearGradient x1="437.394" y1="292.725" x2="974.386" y2="292.725" gradientUnits="userSpaceOnUse" spreadMethod="reflect" id="fill5"><stop offset="0" stop-color="#002060" stop-opacity="1"/><stop offset="0.17" stop-color="#002060" stop-opacity="1"/><stop offset="0.38" stop-color="#E62B4B" stop-opacity="1"/><stop offset="1" stop-color="#E62B4B" stop-opacity="1"/></linearGradient></defs><g transform="translate(9 -56)"><g><g><g><g><path d="M498.694 429.697 498.694 430.451 510.863 440.031C523.005 448.34 534.316 452.222 545.832 452.222 553.363 452.222 561.004 450.557 569.013 447.36 570.372 446.715 571.878 446.442 573.421 446.442 579.666 446.442 586.389 451.406 586.389 459.158L586.389 538.415C586.389 555.552 581.76 571.633 574.781 587.682 561.633 612.048 541.371 633.966 511.703 647.675L498.694 652.915 498.694 653.592C461.663 641.794 437.345 617.144 422.319 588.242 415.376 573.249 410.747 556.112 410.747 538.976L410.747 459.685C410.747 452.852 415.927 448.024 422.723 448.024 424.45 448.024 426.25 448.33 428.087 448.976 435.948 452.444 443.296 454.212 450.57 454.212 465.815 454.212 480.657 446.391 498.694 429.697Z" stroke="url(#stroke0)" stroke-width="7.72052" stroke-linecap="butt" stroke-linejoin="round" stroke-miterlimit="10" fill="#FFFFFF" fill-rule="evenodd" fill-opacity="1" transform="matrix(1 0 0 1.0008 -370.207 -272.364)"/><path d="M497.601 468.943C492.767 468.943 488.596 473.271 488.596 478.685 488.596 483.911 492.767 488.239 497.601 488.239 502.603 488.239 506.61 483.911 506.61 478.685 506.61 473.271 502.603 468.943 497.601 468.943Z" fill="url(#fill1)" fill-rule="evenodd" transform="matrix(1 0 0 1.0008 -370.207 -272.364)"/><path d="M477.965 477.313C474.213 477.313 470.955 480.732 470.955 485.055 470.955 487.216 471.772 489.199 472.911 490.457 469.651 492.441 467.369 496.404 467.369 500.726L467.369 510.274C467.369 512.796 468.834 515.14 470.955 516.038L470.955 526.123C470.955 529.187 473.402 531.887 476.17 531.887L479.595 531.887C482.528 531.887 484.97 529.187 484.97 526.123L484.97 516.038C485.622 515.678 486.113 515.317 486.764 514.596 487.416 514.957 487.743 515.5 488.56 516.038L488.56 529.908C488.56 532.967 491.002 535.854 493.935 535.854L501.105 535.854C503.878 535.854 506.486 533.15 506.486 529.908L506.486 516.038C507.138 515.678 507.789 515.317 508.441 514.596 508.933 514.957 509.42 515.5 510.236 516.038L510.236 526.123C510.236 529.187 512.679 531.887 515.452 531.887L519.037 531.887C521.81 531.887 524.251 529.187 524.251 526.123L524.251 516.038C526.372 515.14 527.676 512.973 527.676 510.274L527.676 500.726C527.836 496.404 525.721 492.619 522.461 490.457 523.599 489.199 524.417 487.216 524.417 485.055 524.417 480.732 521.158 477.313 517.241 477.313 513.495 477.313 510.236 480.732 510.236 485.055 510.236 487.216 511.049 489.199 512.192 490.457 511.049 491.178 509.91 492.081 509.093 493.162 508.607 491.72 507.463 490.097 506.486 488.839 504.696 491 502.249 492.081 499.642 492.441L499.642 502.35C499.642 503.63 498.627 504.305 497.634 504.305 496.672 504.305 495.73 503.676 495.73 502.35L495.73 492.441C493.123 492.081 490.676 490.64 488.886 488.839 487.582 490.097 486.764 491.72 486.113 493.162 485.295 492.081 484.318 491.178 483.18 490.457 484.318 489.199 485.135 487.216 485.135 485.055 485.135 480.732 481.876 477.313 477.965 477.313Z" fill="url(#fill2)" fill-rule="evenodd" transform="matrix(1 0 0 1.0008 -370.207 -272.364)"/><path d="M449.326 505.615C445.666 505.615 442.925 508.881 442.925 512.478L442.925 551.344C442.925 553.635 443.535 556.248 444.755 558.207L458.787 583.025C461.226 587.275 462.756 589.557 462.756 594.128L462.756 607.844C462.756 610.135 464.276 611.763 466.106 611.763L496.307 611.763 496.307 571.591C496.307 567.672 494.787 564.406 492.957 561.794 492.947 561.805 492.928 561.814 492.908 561.814 491.736 561.814 474.036 543.174 473.736 542.853 472.361 541.195 470.298 540.158 468.217 540.158 466.619 540.158 464.993 540.78 463.666 542.201 461.226 545.135 461.536 550.037 463.366 551.665L481.356 570.937C482.586 572.243 482.586 574.535 481.356 575.841 480.746 576.328 479.914 576.577 479.072 576.577 478.238 576.577 477.396 576.328 476.786 575.841L458.787 556.569C456.956 554.609 455.736 551.665 455.736 549.053L455.736 512.478C455.736 508.228 452.685 505.615 449.326 505.615Z" fill="url(#fill3)" fill-rule="evenodd" transform="matrix(1 0 0 1.0008 -370.207 -272.364)"/><path d="M549.089 505.615C545.408 505.615 542.642 508.871 542.642 512.458L542.642 548.922C542.642 551.857 541.415 554.793 539.575 556.415L521.469 575.629C521.011 576.115 520.164 576.364 519.287 576.364 518.401 576.364 517.485 576.115 516.872 575.629 515.947 574.327 515.947 572.042 516.872 570.74L534.968 551.527C536.808 549.904 537.421 545.015 534.666 542.09 533.331 540.674 531.695 540.053 530.088 540.053 527.994 540.053 525.92 541.088 524.537 542.741 524.537 542.741 506.129 561.624 506.129 562.275 504.289 564.23 502.75 567.815 502.75 572.042L502.75 589.634 502.75 592.559 502.75 611.773 532.825 611.773C534.666 611.773 536.195 610.14 536.195 608.187L536.195 594.192C536.195 589.634 538.035 587.349 539.876 583.443L554.3 558.369C555.225 556.415 556.141 553.81 556.141 551.206L556.141 512.458C555.839 508.551 552.771 505.615 549.089 505.615Z" fill="url(#fill4)" fill-rule="evenodd" transform="matrix(1 0 0 1.0008 -370.207 -272.364)"/><path d="M930.89 284.678C927.013 284.678 923.917 285.439 921.609 286.963 919.293 288.487 917.634 290.796 916.624 293.889 915.605 296.983 915.104 300.838 915.104 305.457L915.104 308.642C915.104 313.261 915.605 317.093 916.624 320.14 917.634 323.188 919.293 325.473 921.609 326.997 923.917 328.521 927.013 329.283 930.89 329.283 934.495 329.283 937.419 328.451 939.686 326.789 941.953 325.127 943.636 322.726 944.745 319.586 945.854 316.446 946.404 312.706 946.404 308.366L946.404 305.872C946.404 302.64 946.1 299.685 945.509 297.006 944.909 294.328 943.957 292.088 942.667 290.288 941.378 288.487 939.752 287.101 937.813 286.132 935.883 285.162 933.567 284.678 930.89 284.678ZM814.134 283.153C810.624 283.153 807.688 283.731 805.335 284.885 802.982 286.04 801.179 287.794 799.935 290.149 798.684 292.504 797.834 295.483 797.37 299.084L828.12 299.084C828.12 296.314 827.775 293.912 827.085 291.88 826.387 289.849 825.443 288.187 824.252 286.894 823.044 285.601 821.591 284.655 819.88 284.054 818.172 283.453 816.26 283.153 814.134 283.153ZM744.171 270.548 763.426 270.548 763.426 343.412 744.171 343.412ZM446.26 270.548 465.515 270.548 465.515 343.412 446.26 343.412ZM813.859 268.886C821.242 268.886 827.471 270.201 832.563 272.834 837.639 275.465 841.466 279.529 844.053 285.023 846.64 290.518 847.93 297.607 847.93 306.288L847.93 311.275 797.094 311.275C797.275 315.523 797.952 319.124 799.101 322.08 800.258 325.035 802.06 327.228 804.508 328.659 806.956 330.092 810.207 330.807 814.268 330.807 816.488 330.807 818.494 330.529 820.297 329.976 822.1 329.421 823.644 328.59 824.942 327.482 826.231 326.374 827.249 324.989 827.989 323.327 828.728 321.664 829.097 319.771 829.097 317.646L847.93 317.646C847.93 322.265 847.109 326.282 845.433 329.698 843.774 333.115 841.466 335.955 838.51 338.218 835.561 340.481 832.021 342.189 827.915 343.343 823.808 344.498 819.258 345.075 814.268 345.075 806.24 345.075 799.494 343.712 794.048 340.989 788.601 338.264 784.488 334.085 781.717 328.451 778.947 322.819 777.561 315.66 777.561 306.98 777.561 298.207 778.947 291.027 781.717 285.439 784.488 279.852 788.578 275.696 793.977 272.972 799.376 270.248 806.004 268.886 813.859 268.886ZM525.365 268.886C530.167 268.886 534.369 269.763 537.971 271.517 541.572 273.271 544.365 276.042 546.351 279.829 548.337 283.616 549.33 288.556 549.33 294.652L549.33 343.412 530.075 343.412 530.075 297.699C530.075 295.391 529.798 293.427 529.244 291.811 528.689 290.196 527.881 288.856 526.819 287.794 525.756 286.733 524.441 285.97 522.871 285.509 521.301 285.046 519.547 284.816 517.607 284.816 514.744 284.816 512.158 285.509 509.849 286.894 507.541 288.279 505.74 290.172 504.447 292.574 503.154 294.975 502.508 297.745 502.508 300.885L502.508 343.412 483.252 343.412 483.252 270.548 499.183 270.548 500.707 280.522 501.677 280.522C503.339 278.12 505.348 276.042 507.703 274.288 510.057 272.534 512.713 271.193 515.668 270.27 518.623 269.347 521.855 268.886 525.365 268.886ZM605.332 246.721C610.503 246.721 615.398 247.253 620.016 248.314 624.633 249.376 628.697 251.062 632.206 253.37 635.715 255.679 638.463 258.588 640.449 262.098 642.434 265.607 643.427 269.763 643.427 274.565L643.427 276.227 623.34 276.227 623.34 275.119C623.34 272.626 622.602 270.501 621.125 268.747 619.646 266.993 617.568 265.607 614.891 264.591 612.213 263.575 609.073 263.068 605.471 263.068 601.592 263.068 598.291 263.436 595.566 264.175 592.841 264.915 590.763 265.999 589.333 267.431 587.901 268.863 587.185 270.548 587.185 272.487 587.185 274.704 587.993 276.527 589.609 277.959 591.226 279.391 593.442 280.638 596.259 281.699 599.075 282.761 602.239 283.708 605.748 284.539 609.257 285.37 612.858 286.293 616.553 287.309 620.247 288.326 623.849 289.526 627.358 290.911 630.867 292.296 634.007 294.028 636.778 296.106 639.549 298.184 641.765 300.746 643.427 303.794 645.089 306.841 645.92 310.49 645.92 314.737 645.92 322.033 644.165 327.898 640.657 332.33 637.147 336.763 632.345 339.996 626.249 342.028 620.155 344.059 613.182 345.075 605.332 345.075 599.791 345.075 594.527 344.521 589.54 343.412 584.554 342.304 580.143 340.526 576.311 338.08 572.478 335.632 569.477 332.538 567.307 328.798 565.136 325.058 564.051 320.509 564.051 315.153 564.051 314.691 564.051 314.206 564.051 313.698 564.051 313.191 564.097 312.798 564.19 312.521L584.691 312.521C584.599 312.798 584.554 313.167 584.554 313.629 584.554 314.092 584.554 314.507 584.554 314.876 584.554 317.832 585.361 320.326 586.977 322.357 588.594 324.388 590.971 325.912 594.112 326.928 597.252 327.944 600.9 328.451 605.055 328.451 607.733 328.451 610.112 328.29 612.19 327.967 614.267 327.643 616.114 327.183 617.73 326.581 619.346 325.981 620.685 325.266 621.748 324.434 622.81 323.603 623.594 322.633 624.103 321.525 624.61 320.417 624.865 319.171 624.865 317.785 624.865 315.292 624.057 313.261 622.44 311.69 620.824 310.12 618.607 308.781 615.791 307.672 612.974 306.565 609.811 305.549 606.302 304.625 602.792 303.702 599.191 302.755 595.497 301.785 591.802 300.815 588.201 299.616 584.691 298.184 581.182 296.752 578.042 295.02 575.272 292.989 572.502 290.957 570.285 288.371 568.623 285.231 566.96 282.092 566.129 278.305 566.129 273.873 566.129 269.162 567.122 265.099 569.107 261.682 571.092 258.265 573.887 255.448 577.489 253.232 581.09 251.016 585.246 249.376 589.956 248.314 594.665 247.253 599.791 246.721 605.332 246.721ZM946.273 243.258 965.524 243.258 965.524 343.412 949.73 343.412 948.203 333.577 947.234 333.577C944.835 337.456 941.698 340.342 937.813 342.235 933.937 344.128 929.6 345.075 924.796 345.075 918.792 345.075 913.601 343.712 909.216 340.989 904.821 338.264 901.43 334.085 899.031 328.451 896.625 322.819 895.426 315.615 895.426 306.841 895.426 298.068 896.65 290.888 899.097 285.301 901.544 279.714 904.92 275.581 909.216 272.903 913.503 270.224 918.472 268.886 924.106 268.886 927.243 268.886 930.175 269.231 932.894 269.925 935.62 270.617 938.019 271.703 940.096 273.179 942.174 274.657 943.957 276.458 945.435 278.582L946.273 278.582ZM862.04 243.258 881.291 243.258 881.291 343.412 862.04 343.412ZM744.171 243.258 763.426 243.258 763.426 259.881 744.171 259.881ZM660.74 243.258 679.995 243.258 679.995 278.582 680.965 278.582C682.534 276.643 684.404 274.958 686.575 273.526 688.745 272.094 691.192 270.964 693.917 270.132 696.641 269.301 699.619 268.886 702.852 268.886 707.654 268.886 711.856 269.763 715.458 271.517 719.059 273.271 721.852 276.042 723.838 279.829 725.823 283.616 726.817 288.556 726.817 294.652L726.817 343.412 707.562 343.412 707.562 297.699C707.562 295.391 707.285 293.427 706.731 291.811 706.176 290.196 705.368 288.856 704.306 287.794 703.244 286.733 701.928 285.97 700.358 285.509 698.788 285.046 697.033 284.816 695.094 284.816 692.231 284.816 689.645 285.509 687.337 286.894 685.028 288.279 683.227 290.172 681.935 292.574 680.641 294.975 679.995 297.745 679.995 300.885L679.995 343.412 660.74 343.412ZM446.26 243.258 465.515 243.258 465.515 259.881 446.26 259.881Z" fill="url(#fill5)" fill-rule="evenodd" transform="matrix(1 0 0 1.00034 -206.764 -27.3272)"/><text fill="#374151" fill-opacity="1" font-family="Bierstadt Display,Bierstadt Display_MSFontService,sans-serif" font-style="normal" font-variant="normal" font-weight="700" font-stretch="normal" font-size="40" text-anchor="start" direction="ltr" writing-mode="lr-tb" unicode-bidi="normal" text-decoration="none" transform="matrix(0.787085 0 0 0.787348 234.733 364)">W</text><text fill="#374151" fill-opacity="1" font-family="Bierstadt Display,Bierstadt Display_MSFontService,sans-serif" font-style="normal" font-variant="normal" font-weight="700" font-stretch="normal" font-size="40" text-anchor="start" direction="ltr" writing-mode="lr-tb" unicode-bidi="normal" text-decoration="none" transform="matrix(0.787085 0 0 0.787348 263.855 364)">here Community Shapes Insurance</text><path d="M59.8135 0.00475751C26.7707 0.00475751 0 26.4232 0 59.0312L32.6811 59.0312C32.6811 44.221 44.8637 32.2512 59.8135 32.2512L59.8135 0.00475751Z" fill="#E62B4B" fill-rule="evenodd" fill-opacity="1" transform="matrix(-1 0 0 1.00034 806.212 163.998)"/><text fill="#11182B" fill-opacity="1" font-family="Fira Sans Condensed Medium,Fira Sans Condensed Medium_MSFontService,sans-serif" font-style="normal" font-variant="normal" font-weight="500" font-stretch="condensed" font-size="40" text-anchor="start" direction="ltr" writing-mode="lr-tb" unicode-bidi="normal" text-decoration="none" transform="matrix(0.787085 0 0 0.787348 510.728 189)">by FeatureMining</text></g></g></g></g></g></svg>